<svg xmlns="http://www.w3.org/2000/svg" data-name="Layer 1" viewBox="0 0 100 125" x="0px" y="0px"><title>collection 1</title><path d="M21.76563,85.04443A45.08585,45.08585,0,0,0,50,95a44.49962,44.49962,0,0,0,28.21143-9.94287,45.48636,45.48636,0,0,0,5.05566-4.75586,44.96811,44.96811,0,1,0-61.50146,4.74316ZM50,11A38.988,38.988,0,0,1,80.67255,74.07111C78.27576,64.15717,65.45471,56.58,50,56.58c-15.4646,0-28.27917,7.57806-30.67328,17.49292A38.99007,38.99007,0,0,1,50,11Z"/><circle cx="49.99898" cy="35.37935" r="14.62065" transform="translate(-6.79098 12.43382) rotate(-13.2825)"/><text x="0" y="115" fill="#000000" font-size="5px" font-weight="bold" font-family="'Helvetica Neue', Helvetica, Arial-Unicode, Arial, Sans-serif">Created by Lyhn</text><text x="0" y="120" fill="#000000" font-size="5px" font-weight="bold" font-family="'Helvetica Neue', Helvetica, Arial-Unicode, Arial, Sans-serif">from the Noun Project</text></svg>